<mxfile host="Electron" modified="2024-01-16T20:57:52.319Z" agent="Mozilla/5.0 (Windows NT 10.0; Win64; x64) AppleWebKit/537.36 (KHTML, like Gecko) draw.io/22.0.2 Chrome/114.0.5735.289 Electron/25.8.4 Safari/537.36" etag="P-rKKL4uYpU5X6emXkjJ" version="22.0.2" type="device">
  <diagram name="第 1 页" id="mHxBCF7MGJ3_nBYpgqUW">
    <mxGraphModel dx="1418" dy="828" grid="1" gridSize="10" guides="1" tooltips="1" connect="1" arrows="1" fold="1" page="1" pageScale="1" pageWidth="827" pageHeight="1169" math="0" shadow="0">
      <root>
        <mxCell id="0" />
        <mxCell id="1" parent="0" />
        <mxCell id="QGZTlNN-G8IxI2P4ZlFW-10" style="rounded=0;orthogonalLoop=1;jettySize=auto;html=1;exitX=0.5;exitY=1;exitDx=0;exitDy=0;entryX=0.5;entryY=0;entryDx=0;entryDy=0;endArrow=none;endFill=0;" parent="1" source="QGZTlNN-G8IxI2P4ZlFW-1" target="QGZTlNN-G8IxI2P4ZlFW-2" edge="1">
          <mxGeometry relative="1" as="geometry" />
        </mxCell>
        <mxCell id="QGZTlNN-G8IxI2P4ZlFW-11" style="edgeStyle=none;shape=connector;rounded=0;orthogonalLoop=1;jettySize=auto;html=1;exitX=0.5;exitY=1;exitDx=0;exitDy=0;entryX=0.5;entryY=0;entryDx=0;entryDy=0;labelBackgroundColor=default;strokeColor=default;align=center;verticalAlign=middle;fontFamily=Helvetica;fontSize=11;fontColor=default;endArrow=none;endFill=0;" parent="1" source="QGZTlNN-G8IxI2P4ZlFW-1" target="QGZTlNN-G8IxI2P4ZlFW-3" edge="1">
          <mxGeometry relative="1" as="geometry" />
        </mxCell>
        <mxCell id="QGZTlNN-G8IxI2P4ZlFW-1" value="10" style="ellipse;whiteSpace=wrap;html=1;aspect=fixed;" parent="1" vertex="1">
          <mxGeometry x="160" y="40" width="40" height="40" as="geometry" />
        </mxCell>
        <mxCell id="QGZTlNN-G8IxI2P4ZlFW-12" style="edgeStyle=none;shape=connector;rounded=0;orthogonalLoop=1;jettySize=auto;html=1;exitX=0.5;exitY=1;exitDx=0;exitDy=0;entryX=0.5;entryY=0;entryDx=0;entryDy=0;labelBackgroundColor=default;strokeColor=default;align=center;verticalAlign=middle;fontFamily=Helvetica;fontSize=11;fontColor=default;endArrow=none;endFill=0;" parent="1" source="QGZTlNN-G8IxI2P4ZlFW-2" target="QGZTlNN-G8IxI2P4ZlFW-4" edge="1">
          <mxGeometry relative="1" as="geometry" />
        </mxCell>
        <mxCell id="QGZTlNN-G8IxI2P4ZlFW-13" style="edgeStyle=none;shape=connector;rounded=0;orthogonalLoop=1;jettySize=auto;html=1;exitX=0.5;exitY=1;exitDx=0;exitDy=0;entryX=0.5;entryY=0;entryDx=0;entryDy=0;labelBackgroundColor=default;strokeColor=default;align=center;verticalAlign=middle;fontFamily=Helvetica;fontSize=11;fontColor=default;endArrow=none;endFill=0;" parent="1" source="QGZTlNN-G8IxI2P4ZlFW-2" target="QGZTlNN-G8IxI2P4ZlFW-5" edge="1">
          <mxGeometry relative="1" as="geometry" />
        </mxCell>
        <mxCell id="QGZTlNN-G8IxI2P4ZlFW-2" value="8" style="ellipse;whiteSpace=wrap;html=1;aspect=fixed;" parent="1" vertex="1">
          <mxGeometry x="80" y="120" width="40" height="40" as="geometry" />
        </mxCell>
        <mxCell id="QGZTlNN-G8IxI2P4ZlFW-14" style="edgeStyle=none;shape=connector;rounded=0;orthogonalLoop=1;jettySize=auto;html=1;exitX=0.5;exitY=1;exitDx=0;exitDy=0;entryX=0.5;entryY=0;entryDx=0;entryDy=0;labelBackgroundColor=default;strokeColor=default;align=center;verticalAlign=middle;fontFamily=Helvetica;fontSize=11;fontColor=default;endArrow=none;endFill=0;" parent="1" source="QGZTlNN-G8IxI2P4ZlFW-3" target="QGZTlNN-G8IxI2P4ZlFW-6" edge="1">
          <mxGeometry relative="1" as="geometry" />
        </mxCell>
        <mxCell id="QGZTlNN-G8IxI2P4ZlFW-3" value="12" style="ellipse;whiteSpace=wrap;html=1;aspect=fixed;" parent="1" vertex="1">
          <mxGeometry x="240" y="120" width="40" height="40" as="geometry" />
        </mxCell>
        <mxCell id="QGZTlNN-G8IxI2P4ZlFW-4" value="5" style="ellipse;whiteSpace=wrap;html=1;aspect=fixed;" parent="1" vertex="1">
          <mxGeometry x="40" y="200" width="40" height="40" as="geometry" />
        </mxCell>
        <mxCell id="QGZTlNN-G8IxI2P4ZlFW-5" value="9" style="ellipse;whiteSpace=wrap;html=1;aspect=fixed;" parent="1" vertex="1">
          <mxGeometry x="120" y="200" width="40" height="40" as="geometry" />
        </mxCell>
        <mxCell id="QGZTlNN-G8IxI2P4ZlFW-15" style="edgeStyle=none;shape=connector;rounded=0;orthogonalLoop=1;jettySize=auto;html=1;exitX=0.5;exitY=1;exitDx=0;exitDy=0;entryX=0.5;entryY=0;entryDx=0;entryDy=0;labelBackgroundColor=default;strokeColor=default;align=center;verticalAlign=middle;fontFamily=Helvetica;fontSize=11;fontColor=default;endArrow=none;endFill=0;" parent="1" source="QGZTlNN-G8IxI2P4ZlFW-6" target="QGZTlNN-G8IxI2P4ZlFW-7" edge="1">
          <mxGeometry relative="1" as="geometry" />
        </mxCell>
        <mxCell id="QGZTlNN-G8IxI2P4ZlFW-16" style="edgeStyle=none;shape=connector;rounded=0;orthogonalLoop=1;jettySize=auto;html=1;exitX=0.5;exitY=1;exitDx=0;exitDy=0;entryX=0.5;entryY=0;entryDx=0;entryDy=0;labelBackgroundColor=default;strokeColor=default;align=center;verticalAlign=middle;fontFamily=Helvetica;fontSize=11;fontColor=default;endArrow=none;endFill=0;" parent="1" source="QGZTlNN-G8IxI2P4ZlFW-6" target="QGZTlNN-G8IxI2P4ZlFW-8" edge="1">
          <mxGeometry relative="1" as="geometry" />
        </mxCell>
        <mxCell id="QGZTlNN-G8IxI2P4ZlFW-6" value="16" style="ellipse;whiteSpace=wrap;html=1;aspect=fixed;" parent="1" vertex="1">
          <mxGeometry x="280" y="200" width="40" height="40" as="geometry" />
        </mxCell>
        <mxCell id="QGZTlNN-G8IxI2P4ZlFW-7" value="13" style="ellipse;whiteSpace=wrap;html=1;aspect=fixed;" parent="1" vertex="1">
          <mxGeometry x="240" y="280" width="40" height="40" as="geometry" />
        </mxCell>
        <mxCell id="QGZTlNN-G8IxI2P4ZlFW-8" value="17" style="ellipse;whiteSpace=wrap;html=1;aspect=fixed;" parent="1" vertex="1">
          <mxGeometry x="320" y="280" width="40" height="40" as="geometry" />
        </mxCell>
        <mxCell id="d6vRof3fvm75QPI4wwh5-1" style="rounded=0;orthogonalLoop=1;jettySize=auto;html=1;exitX=0.5;exitY=1;exitDx=0;exitDy=0;entryX=0.5;entryY=0;entryDx=0;entryDy=0;endArrow=none;endFill=0;" parent="1" source="d6vRof3fvm75QPI4wwh5-3" target="d6vRof3fvm75QPI4wwh5-6" edge="1">
          <mxGeometry relative="1" as="geometry" />
        </mxCell>
        <mxCell id="d6vRof3fvm75QPI4wwh5-3" value="10" style="ellipse;whiteSpace=wrap;html=1;aspect=fixed;" parent="1" vertex="1">
          <mxGeometry x="680" y="360" width="40" height="40" as="geometry" />
        </mxCell>
        <mxCell id="d6vRof3fvm75QPI4wwh5-4" style="edgeStyle=none;shape=connector;rounded=0;orthogonalLoop=1;jettySize=auto;html=1;exitX=0.5;exitY=1;exitDx=0;exitDy=0;entryX=0.5;entryY=0;entryDx=0;entryDy=0;labelBackgroundColor=default;strokeColor=default;align=center;verticalAlign=middle;fontFamily=Helvetica;fontSize=11;fontColor=default;endArrow=none;endFill=0;" parent="1" source="d6vRof3fvm75QPI4wwh5-6" target="d6vRof3fvm75QPI4wwh5-9" edge="1">
          <mxGeometry relative="1" as="geometry" />
        </mxCell>
        <mxCell id="d6vRof3fvm75QPI4wwh5-5" style="edgeStyle=none;shape=connector;rounded=0;orthogonalLoop=1;jettySize=auto;html=1;exitX=0.5;exitY=1;exitDx=0;exitDy=0;entryX=0.5;entryY=0;entryDx=0;entryDy=0;labelBackgroundColor=default;strokeColor=default;align=center;verticalAlign=middle;fontFamily=Helvetica;fontSize=11;fontColor=default;endArrow=none;endFill=0;" parent="1" source="d6vRof3fvm75QPI4wwh5-6" target="d6vRof3fvm75QPI4wwh5-10" edge="1">
          <mxGeometry relative="1" as="geometry" />
        </mxCell>
        <mxCell id="d6vRof3fvm75QPI4wwh5-6" value="8" style="ellipse;whiteSpace=wrap;html=1;aspect=fixed;" parent="1" vertex="1">
          <mxGeometry x="600" y="440" width="40" height="40" as="geometry" />
        </mxCell>
        <mxCell id="d6vRof3fvm75QPI4wwh5-9" value="5" style="ellipse;whiteSpace=wrap;html=1;aspect=fixed;" parent="1" vertex="1">
          <mxGeometry x="560" y="520" width="40" height="40" as="geometry" />
        </mxCell>
        <mxCell id="d6vRof3fvm75QPI4wwh5-10" value="9" style="ellipse;whiteSpace=wrap;html=1;aspect=fixed;" parent="1" vertex="1">
          <mxGeometry x="640" y="520" width="40" height="40" as="geometry" />
        </mxCell>
        <mxCell id="d6vRof3fvm75QPI4wwh5-12" style="edgeStyle=none;shape=connector;rounded=0;orthogonalLoop=1;jettySize=auto;html=1;exitX=0.5;exitY=1;exitDx=0;exitDy=0;entryX=0.5;entryY=0;entryDx=0;entryDy=0;labelBackgroundColor=default;strokeColor=default;align=center;verticalAlign=middle;fontFamily=Helvetica;fontSize=11;fontColor=default;endArrow=none;endFill=0;" parent="1" source="d6vRof3fvm75QPI4wwh5-13" target="d6vRof3fvm75QPI4wwh5-15" edge="1">
          <mxGeometry relative="1" as="geometry" />
        </mxCell>
        <mxCell id="d6vRof3fvm75QPI4wwh5-16" style="rounded=0;orthogonalLoop=1;jettySize=auto;html=1;exitX=0.5;exitY=0;exitDx=0;exitDy=0;endArrow=none;endFill=0;" parent="1" source="d6vRof3fvm75QPI4wwh5-13" edge="1">
          <mxGeometry relative="1" as="geometry">
            <mxPoint x="700" y="400" as="targetPoint" />
          </mxGeometry>
        </mxCell>
        <mxCell id="d6vRof3fvm75QPI4wwh5-13" value="16" style="ellipse;whiteSpace=wrap;html=1;aspect=fixed;" parent="1" vertex="1">
          <mxGeometry x="720" y="440" width="40" height="40" as="geometry" />
        </mxCell>
        <mxCell id="d6vRof3fvm75QPI4wwh5-15" value="17" style="ellipse;whiteSpace=wrap;html=1;aspect=fixed;" parent="1" vertex="1">
          <mxGeometry x="760" y="520" width="40" height="40" as="geometry" />
        </mxCell>
        <mxCell id="d6vRof3fvm75QPI4wwh5-17" style="rounded=0;orthogonalLoop=1;jettySize=auto;html=1;exitX=0.5;exitY=1;exitDx=0;exitDy=0;entryX=0.5;entryY=0;entryDx=0;entryDy=0;endArrow=none;endFill=0;" parent="1" source="d6vRof3fvm75QPI4wwh5-18" target="d6vRof3fvm75QPI4wwh5-21" edge="1">
          <mxGeometry relative="1" as="geometry" />
        </mxCell>
        <mxCell id="d6vRof3fvm75QPI4wwh5-18" value="10" style="ellipse;whiteSpace=wrap;html=1;aspect=fixed;" parent="1" vertex="1">
          <mxGeometry x="440" y="360" width="40" height="40" as="geometry" />
        </mxCell>
        <mxCell id="d6vRof3fvm75QPI4wwh5-19" style="edgeStyle=none;shape=connector;rounded=0;orthogonalLoop=1;jettySize=auto;html=1;exitX=0.5;exitY=1;exitDx=0;exitDy=0;entryX=0.5;entryY=0;entryDx=0;entryDy=0;labelBackgroundColor=default;strokeColor=default;align=center;verticalAlign=middle;fontFamily=Helvetica;fontSize=11;fontColor=default;endArrow=none;endFill=0;" parent="1" source="d6vRof3fvm75QPI4wwh5-21" target="d6vRof3fvm75QPI4wwh5-22" edge="1">
          <mxGeometry relative="1" as="geometry" />
        </mxCell>
        <mxCell id="d6vRof3fvm75QPI4wwh5-20" style="edgeStyle=none;shape=connector;rounded=0;orthogonalLoop=1;jettySize=auto;html=1;exitX=0.5;exitY=1;exitDx=0;exitDy=0;entryX=0.5;entryY=0;entryDx=0;entryDy=0;labelBackgroundColor=default;strokeColor=default;align=center;verticalAlign=middle;fontFamily=Helvetica;fontSize=11;fontColor=default;endArrow=none;endFill=0;" parent="1" source="d6vRof3fvm75QPI4wwh5-21" target="d6vRof3fvm75QPI4wwh5-23" edge="1">
          <mxGeometry relative="1" as="geometry" />
        </mxCell>
        <mxCell id="d6vRof3fvm75QPI4wwh5-21" value="8" style="ellipse;whiteSpace=wrap;html=1;aspect=fixed;" parent="1" vertex="1">
          <mxGeometry x="360" y="440" width="40" height="40" as="geometry" />
        </mxCell>
        <mxCell id="d6vRof3fvm75QPI4wwh5-22" value="5" style="ellipse;whiteSpace=wrap;html=1;aspect=fixed;" parent="1" vertex="1">
          <mxGeometry x="320" y="520" width="40" height="40" as="geometry" />
        </mxCell>
        <mxCell id="d6vRof3fvm75QPI4wwh5-23" value="9" style="ellipse;whiteSpace=wrap;html=1;aspect=fixed;" parent="1" vertex="1">
          <mxGeometry x="400" y="520" width="40" height="40" as="geometry" />
        </mxCell>
        <mxCell id="d6vRof3fvm75QPI4wwh5-24" style="edgeStyle=none;shape=connector;rounded=0;orthogonalLoop=1;jettySize=auto;html=1;exitX=0.5;exitY=1;exitDx=0;exitDy=0;entryX=0.5;entryY=0;entryDx=0;entryDy=0;labelBackgroundColor=default;strokeColor=default;align=center;verticalAlign=middle;fontFamily=Helvetica;fontSize=11;fontColor=default;endArrow=none;endFill=0;" parent="1" source="d6vRof3fvm75QPI4wwh5-18" target="d6vRof3fvm75QPI4wwh5-27" edge="1">
          <mxGeometry relative="1" as="geometry">
            <mxPoint x="580" y="560" as="sourcePoint" />
          </mxGeometry>
        </mxCell>
        <mxCell id="d6vRof3fvm75QPI4wwh5-27" value="17" style="ellipse;whiteSpace=wrap;html=1;aspect=fixed;" parent="1" vertex="1">
          <mxGeometry x="480" y="440" width="40" height="40" as="geometry" />
        </mxCell>
        <mxCell id="d6vRof3fvm75QPI4wwh5-30" style="edgeStyle=none;shape=connector;rounded=0;orthogonalLoop=1;jettySize=auto;html=1;exitX=0.5;exitY=1;exitDx=0;exitDy=0;entryX=0.5;entryY=0;entryDx=0;entryDy=0;labelBackgroundColor=default;strokeColor=default;align=center;verticalAlign=middle;fontFamily=Helvetica;fontSize=11;fontColor=default;endArrow=none;endFill=0;" parent="1" source="d6vRof3fvm75QPI4wwh5-32" target="d6vRof3fvm75QPI4wwh5-33" edge="1">
          <mxGeometry relative="1" as="geometry" />
        </mxCell>
        <mxCell id="d6vRof3fvm75QPI4wwh5-31" style="edgeStyle=none;shape=connector;rounded=0;orthogonalLoop=1;jettySize=auto;html=1;exitX=0.5;exitY=1;exitDx=0;exitDy=0;entryX=0.5;entryY=0;entryDx=0;entryDy=0;labelBackgroundColor=default;strokeColor=default;align=center;verticalAlign=middle;fontFamily=Helvetica;fontSize=11;fontColor=default;endArrow=none;endFill=0;" parent="1" source="d6vRof3fvm75QPI4wwh5-32" target="d6vRof3fvm75QPI4wwh5-34" edge="1">
          <mxGeometry relative="1" as="geometry" />
        </mxCell>
        <mxCell id="d6vRof3fvm75QPI4wwh5-32" value="8" style="ellipse;whiteSpace=wrap;html=1;aspect=fixed;" parent="1" vertex="1">
          <mxGeometry x="60" y="270" width="40" height="40" as="geometry" />
        </mxCell>
        <mxCell id="d6vRof3fvm75QPI4wwh5-33" value="5" style="ellipse;whiteSpace=wrap;html=1;aspect=fixed;" parent="1" vertex="1">
          <mxGeometry x="20" y="350" width="40" height="40" as="geometry" />
        </mxCell>
        <mxCell id="d6vRof3fvm75QPI4wwh5-34" value="9" style="ellipse;whiteSpace=wrap;html=1;aspect=fixed;" parent="1" vertex="1">
          <mxGeometry x="100" y="350" width="40" height="40" as="geometry" />
        </mxCell>
        <mxCell id="d6vRof3fvm75QPI4wwh5-35" style="edgeStyle=none;shape=connector;rounded=0;orthogonalLoop=1;jettySize=auto;html=1;exitX=0.5;exitY=1;exitDx=0;exitDy=0;entryX=0.5;entryY=0;entryDx=0;entryDy=0;labelBackgroundColor=default;strokeColor=default;align=center;verticalAlign=middle;fontFamily=Helvetica;fontSize=11;fontColor=default;endArrow=none;endFill=0;" parent="1" source="d6vRof3fvm75QPI4wwh5-34" target="d6vRof3fvm75QPI4wwh5-36" edge="1">
          <mxGeometry relative="1" as="geometry">
            <mxPoint x="160" y="230" as="sourcePoint" />
          </mxGeometry>
        </mxCell>
        <mxCell id="d6vRof3fvm75QPI4wwh5-36" value="17" style="ellipse;whiteSpace=wrap;html=1;aspect=fixed;" parent="1" vertex="1">
          <mxGeometry x="140" y="430" width="40" height="40" as="geometry" />
        </mxCell>
        <mxCell id="9RniptOUNIGrb7tPASII-1" style="rounded=0;orthogonalLoop=1;jettySize=auto;html=1;exitX=0.5;exitY=1;exitDx=0;exitDy=0;entryX=0.5;entryY=0;entryDx=0;entryDy=0;endArrow=none;endFill=0;" parent="1" source="9RniptOUNIGrb7tPASII-3" target="9RniptOUNIGrb7tPASII-6" edge="1">
          <mxGeometry relative="1" as="geometry" />
        </mxCell>
        <mxCell id="9RniptOUNIGrb7tPASII-2" style="edgeStyle=none;shape=connector;rounded=0;orthogonalLoop=1;jettySize=auto;html=1;exitX=0.5;exitY=1;exitDx=0;exitDy=0;entryX=0.5;entryY=0;entryDx=0;entryDy=0;labelBackgroundColor=default;strokeColor=default;align=center;verticalAlign=middle;fontFamily=Helvetica;fontSize=11;fontColor=default;endArrow=none;endFill=0;" parent="1" source="9RniptOUNIGrb7tPASII-3" target="9RniptOUNIGrb7tPASII-8" edge="1">
          <mxGeometry relative="1" as="geometry" />
        </mxCell>
        <mxCell id="9RniptOUNIGrb7tPASII-3" value="10" style="ellipse;whiteSpace=wrap;html=1;aspect=fixed;" parent="1" vertex="1">
          <mxGeometry x="520" y="40" width="40" height="40" as="geometry" />
        </mxCell>
        <mxCell id="9RniptOUNIGrb7tPASII-4" style="edgeStyle=none;shape=connector;rounded=0;orthogonalLoop=1;jettySize=auto;html=1;exitX=0.5;exitY=1;exitDx=0;exitDy=0;entryX=0.5;entryY=0;entryDx=0;entryDy=0;labelBackgroundColor=default;strokeColor=default;align=center;verticalAlign=middle;fontFamily=Helvetica;fontSize=11;fontColor=default;endArrow=none;endFill=0;" parent="1" source="9RniptOUNIGrb7tPASII-6" target="9RniptOUNIGrb7tPASII-9" edge="1">
          <mxGeometry relative="1" as="geometry" />
        </mxCell>
        <mxCell id="9RniptOUNIGrb7tPASII-5" style="edgeStyle=none;shape=connector;rounded=0;orthogonalLoop=1;jettySize=auto;html=1;exitX=0.5;exitY=1;exitDx=0;exitDy=0;entryX=0.5;entryY=0;entryDx=0;entryDy=0;labelBackgroundColor=default;strokeColor=default;align=center;verticalAlign=middle;fontFamily=Helvetica;fontSize=11;fontColor=default;endArrow=none;endFill=0;" parent="1" source="9RniptOUNIGrb7tPASII-6" target="9RniptOUNIGrb7tPASII-10" edge="1">
          <mxGeometry relative="1" as="geometry" />
        </mxCell>
        <mxCell id="9RniptOUNIGrb7tPASII-6" value="8" style="ellipse;whiteSpace=wrap;html=1;aspect=fixed;" parent="1" vertex="1">
          <mxGeometry x="440" y="120" width="40" height="40" as="geometry" />
        </mxCell>
        <mxCell id="9RniptOUNIGrb7tPASII-7" style="edgeStyle=none;shape=connector;rounded=0;orthogonalLoop=1;jettySize=auto;html=1;exitX=0.5;exitY=1;exitDx=0;exitDy=0;entryX=0.5;entryY=0;entryDx=0;entryDy=0;labelBackgroundColor=default;strokeColor=default;align=center;verticalAlign=middle;fontFamily=Helvetica;fontSize=11;fontColor=default;endArrow=none;endFill=0;" parent="1" source="9RniptOUNIGrb7tPASII-8" target="9RniptOUNIGrb7tPASII-13" edge="1">
          <mxGeometry relative="1" as="geometry" />
        </mxCell>
        <mxCell id="9RniptOUNIGrb7tPASII-8" value="12" style="ellipse;whiteSpace=wrap;html=1;aspect=fixed;" parent="1" vertex="1">
          <mxGeometry x="600" y="120" width="40" height="40" as="geometry" />
        </mxCell>
        <mxCell id="9RniptOUNIGrb7tPASII-9" value="5" style="ellipse;whiteSpace=wrap;html=1;aspect=fixed;" parent="1" vertex="1">
          <mxGeometry x="400" y="200" width="40" height="40" as="geometry" />
        </mxCell>
        <mxCell id="9RniptOUNIGrb7tPASII-10" value="9" style="ellipse;whiteSpace=wrap;html=1;aspect=fixed;" parent="1" vertex="1">
          <mxGeometry x="480" y="200" width="40" height="40" as="geometry" />
        </mxCell>
        <mxCell id="9RniptOUNIGrb7tPASII-12" style="edgeStyle=none;shape=connector;rounded=0;orthogonalLoop=1;jettySize=auto;html=1;exitX=0.5;exitY=1;exitDx=0;exitDy=0;entryX=0.5;entryY=0;entryDx=0;entryDy=0;labelBackgroundColor=default;strokeColor=default;align=center;verticalAlign=middle;fontFamily=Helvetica;fontSize=11;fontColor=default;endArrow=none;endFill=0;" parent="1" source="9RniptOUNIGrb7tPASII-13" target="9RniptOUNIGrb7tPASII-15" edge="1">
          <mxGeometry relative="1" as="geometry" />
        </mxCell>
        <mxCell id="9RniptOUNIGrb7tPASII-13" value="16" style="ellipse;whiteSpace=wrap;html=1;aspect=fixed;" parent="1" vertex="1">
          <mxGeometry x="640" y="200" width="40" height="40" as="geometry" />
        </mxCell>
        <mxCell id="9RniptOUNIGrb7tPASII-15" value="17" style="ellipse;whiteSpace=wrap;html=1;aspect=fixed;" parent="1" vertex="1">
          <mxGeometry x="680" y="280" width="40" height="40" as="geometry" />
        </mxCell>
        <mxCell id="9RniptOUNIGrb7tPASII-39" value="删除13" style="shape=singleArrow;whiteSpace=wrap;html=1;arrowWidth=0.4;arrowSize=0.4;" parent="1" vertex="1">
          <mxGeometry x="310" y="140" width="80" height="60" as="geometry" />
        </mxCell>
        <mxCell id="9RniptOUNIGrb7tPASII-40" value="删除12" style="shape=singleArrow;whiteSpace=wrap;html=1;arrowWidth=0.4;arrowSize=0.4;rotation=55;" parent="1" vertex="1">
          <mxGeometry x="580" y="290" width="80" height="60" as="geometry" />
        </mxCell>
        <mxCell id="9RniptOUNIGrb7tPASII-43" value="删除16" style="shape=singleArrow;whiteSpace=wrap;html=1;arrowWidth=0.4;arrowSize=0.4;direction=west;" parent="1" vertex="1">
          <mxGeometry x="520" y="400" width="80" height="60" as="geometry" />
        </mxCell>
        <mxCell id="9RniptOUNIGrb7tPASII-44" value="删除10（方法一）" style="shape=singleArrow;whiteSpace=wrap;html=1;arrowWidth=0.4;arrowSize=0.4;direction=west;rotation=15;" parent="1" vertex="1">
          <mxGeometry x="210" y="370" width="80" height="60" as="geometry" />
        </mxCell>
        <mxCell id="_nmx8eeB24jtwCgnrcMR-1" style="rounded=0;orthogonalLoop=1;jettySize=auto;html=1;exitX=0.5;exitY=1;exitDx=0;exitDy=0;entryX=0.5;entryY=0;entryDx=0;entryDy=0;endArrow=none;endFill=0;" parent="1" source="_nmx8eeB24jtwCgnrcMR-2" target="_nmx8eeB24jtwCgnrcMR-5" edge="1">
          <mxGeometry relative="1" as="geometry" />
        </mxCell>
        <mxCell id="_nmx8eeB24jtwCgnrcMR-2" value="9" style="ellipse;whiteSpace=wrap;html=1;aspect=fixed;" parent="1" vertex="1">
          <mxGeometry x="180" y="480" width="40" height="40" as="geometry" />
        </mxCell>
        <mxCell id="_nmx8eeB24jtwCgnrcMR-3" style="edgeStyle=none;shape=connector;rounded=0;orthogonalLoop=1;jettySize=auto;html=1;exitX=0.5;exitY=1;exitDx=0;exitDy=0;entryX=0.5;entryY=0;entryDx=0;entryDy=0;labelBackgroundColor=default;strokeColor=default;align=center;verticalAlign=middle;fontFamily=Helvetica;fontSize=11;fontColor=default;endArrow=none;endFill=0;" parent="1" source="_nmx8eeB24jtwCgnrcMR-5" target="_nmx8eeB24jtwCgnrcMR-6" edge="1">
          <mxGeometry relative="1" as="geometry" />
        </mxCell>
        <mxCell id="_nmx8eeB24jtwCgnrcMR-5" value="8" style="ellipse;whiteSpace=wrap;html=1;aspect=fixed;" parent="1" vertex="1">
          <mxGeometry x="100" y="560" width="40" height="40" as="geometry" />
        </mxCell>
        <mxCell id="_nmx8eeB24jtwCgnrcMR-6" value="5" style="ellipse;whiteSpace=wrap;html=1;aspect=fixed;" parent="1" vertex="1">
          <mxGeometry x="60" y="640" width="40" height="40" as="geometry" />
        </mxCell>
        <mxCell id="_nmx8eeB24jtwCgnrcMR-8" style="edgeStyle=none;shape=connector;rounded=0;orthogonalLoop=1;jettySize=auto;html=1;exitX=0.5;exitY=1;exitDx=0;exitDy=0;entryX=0.5;entryY=0;entryDx=0;entryDy=0;labelBackgroundColor=default;strokeColor=default;align=center;verticalAlign=middle;fontFamily=Helvetica;fontSize=11;fontColor=default;endArrow=none;endFill=0;" parent="1" source="_nmx8eeB24jtwCgnrcMR-2" target="_nmx8eeB24jtwCgnrcMR-9" edge="1">
          <mxGeometry relative="1" as="geometry">
            <mxPoint x="320" y="680" as="sourcePoint" />
          </mxGeometry>
        </mxCell>
        <mxCell id="_nmx8eeB24jtwCgnrcMR-9" value="17" style="ellipse;whiteSpace=wrap;html=1;aspect=fixed;" parent="1" vertex="1">
          <mxGeometry x="220" y="560" width="40" height="40" as="geometry" />
        </mxCell>
        <mxCell id="_nmx8eeB24jtwCgnrcMR-12" value="&lt;font color=&quot;#6666ff&quot;&gt;删除10（方法二，推荐）&lt;/font&gt;" style="shape=singleArrow;whiteSpace=wrap;html=1;arrowWidth=0.4;arrowSize=0.4;direction=west;rotation=-15;" parent="1" vertex="1">
          <mxGeometry x="240" y="450" width="80" height="60" as="geometry" />
        </mxCell>
      </root>
    </mxGraphModel>
  </diagram>
</mxfile>
